<?xml version="1.0" encoding="utf-8"?>
<!-- Generator: Adobe Illustrator 25.4.1, SVG Export Plug-In . SVG Version: 6.00 Build 0)  -->
<svg version="1.1" id="Layer_1" xmlns="http://www.w3.org/2000/svg" xmlns:xlink="http://www.w3.org/1999/xlink" x="0px" y="0px"
	 viewBox="0 0 731 850" style="enable-background:new 0 0 731 850;" xml:space="preserve">
<style type="text/css">
	.st0{fill:#F7F5F0;}
	.st1{fill:#0F1941;}
	.st2{fill:#E74536;}
</style>
<g>
	<path class="st0" d="M710,142.2H458.7L312.3,288.9v397.9c0,11.6,9.4,21,21,21H710c11.6,0,21-9.4,21-21V163.2
		C730.9,151.7,721.6,142.2,710,142.2z"/>
	<circle class="st1" cx="647.1" cy="226" r="41.9"/>
	<path class="st1" d="M647.1,288.9c-23.1,0-41.9,18.7-41.9,41.9v62.7H689v-62.8C689.1,307.6,670.4,288.9,647.1,288.9z"/>
	<path class="st1" d="M678.5,498.2H364.6c-5.8,0-10.4-4.6-10.4-10.4l0,0c0-5.8,4.6-10.4,10.4-10.4h314.1c5.8,0,10.4,4.6,10.4,10.4
		l0,0C689.1,493.6,684.4,498.2,678.5,498.2z"/>
	<path class="st1" d="M678.5,561.1H364.6c-5.8,0-10.4-4.6-10.4-10.4l0,0c0-5.8,4.6-10.4,10.4-10.4h314.1c5.8,0,10.4,4.6,10.4,10.4
		l0,0C689.1,556.3,684.4,561.1,678.5,561.1z"/>
	<path class="st1" d="M594.9,623.9H364.6c-5.8,0-10.4-4.6-10.4-10.4l0,0c0-5.8,4.6-10.4,10.4-10.4H595c5.8,0,10.4,4.6,10.4,10.4l0,0
		C605.4,619.2,600.6,623.9,594.9,623.9z"/>
	<path class="st2" d="M416.7,288.9H312.1l146.5-146.5v104.7C458.7,270.1,440,288.9,416.7,288.9z"/>
</g>
</svg>
